<?xml version="1.0" encoding="UTF-8" standalone="no"?>
<!DOCTYPE svg PUBLIC "-//W3C//DTD SVG 1.1//EN"
 "http://www.w3.org/Graphics/SVG/1.1/DTD/svg11.dtd">
<!-- Generated by graphviz version 9.0.0 (20230911.1827)
 -->
<!-- Pages: 1 -->
<svg width="1357pt" height="260pt"
 viewBox="0.00 0.00 1356.51 260.00" xmlns="http://www.w3.org/2000/svg" xmlns:xlink="http://www.w3.org/1999/xlink">
<g id="graph0" class="graph" transform="scale(1 1) rotate(0) translate(4 256)">
<polygon fill="white" stroke="none" points="-4,4 -4,-256 1352.51,-256 1352.51,4 -4,4"/>
<!-- 0 -->
<g id="node1" class="node">
<title>0</title>
<ellipse fill="none" stroke="black" cx="682.5" cy="-234" rx="68.03" ry="18"/>
<text text-anchor="middle" x="682.5" y="-228.57" font-family="Times New Roman,serif" font-size="14.00">Weight &gt; 86.60</text>
</g>
<!-- 2 -->
<g id="node2" class="node">
<title>2</title>
<ellipse fill="none" stroke="black" cx="503.5" cy="-162" rx="68.03" ry="18"/>
<text text-anchor="middle" x="503.5" y="-156.57" font-family="Times New Roman,serif" font-size="14.00">Weight &gt; 66.78</text>
</g>
<!-- 0&#45;&gt;2 -->
<g id="edge1" class="edge">
<title>0&#45;&gt;2</title>
<path fill="none" stroke="black" d="M645.41,-218.5C618.05,-207.8 580.6,-193.15 551.04,-181.59"/>
<polygon fill="black" stroke="black" points="552.54,-178.42 541.95,-178.04 549.99,-184.94 552.54,-178.42"/>
</g>
<!-- 16 -->
<g id="node9" class="node">
<title>16</title>
<ellipse fill="none" stroke="black" cx="856.5" cy="-162" rx="38.09" ry="18"/>
<text text-anchor="middle" x="856.5" y="-156.57" font-family="Times New Roman,serif" font-size="14.00">Gender</text>
</g>
<!-- 0&#45;&gt;16 -->
<g id="edge8" class="edge">
<title>0&#45;&gt;16</title>
<path fill="none" stroke="black" d="M718.55,-218.5C747.54,-206.83 788.18,-190.48 817.84,-178.55"/>
<polygon fill="black" stroke="black" points="818.86,-181.92 826.83,-174.94 816.24,-175.42 818.86,-181.92"/>
</g>
<!-- 4 -->
<g id="node3" class="node">
<title>4</title>
<ellipse fill="none" stroke="black" cx="254.5" cy="-90" rx="68.03" ry="18"/>
<text text-anchor="middle" x="254.5" y="-84.58" font-family="Times New Roman,serif" font-size="14.00">Weight &gt; 54.38</text>
</g>
<!-- 2&#45;&gt;4 -->
<g id="edge2" class="edge">
<title>2&#45;&gt;4</title>
<path fill="none" stroke="black" d="M458.12,-148.24C416.74,-136.61 355.44,-119.38 310.92,-106.86"/>
<polygon fill="black" stroke="black" points="312.02,-103.53 301.45,-104.2 310.12,-110.27 312.02,-103.53"/>
</g>
<!-- 10 -->
<g id="node6" class="node">
<title>10</title>
<ellipse fill="none" stroke="black" cx="503.5" cy="-90" rx="38.09" ry="18"/>
<text text-anchor="middle" x="503.5" y="-84.58" font-family="Times New Roman,serif" font-size="14.00">Gender</text>
</g>
<!-- 2&#45;&gt;10 -->
<g id="edge5" class="edge">
<title>2&#45;&gt;10</title>
<path fill="none" stroke="black" d="M503.5,-143.7C503.5,-136.41 503.5,-127.73 503.5,-119.54"/>
<polygon fill="black" stroke="black" points="507,-119.62 503.5,-109.62 500,-119.62 507,-119.62"/>
</g>
<!-- 6 -->
<g id="node4" class="node">
<title>6</title>
<ellipse fill="none" stroke="black" cx="83.5" cy="-18" rx="83.5" ry="18"/>
<text text-anchor="middle" x="83.5" y="-12.57" font-family="Times New Roman,serif" font-size="14.00">Insufficient_Weight</text>
</g>
<!-- 4&#45;&gt;6 -->
<g id="edge3" class="edge">
<title>4&#45;&gt;6</title>
<path fill="none" stroke="black" d="M218.65,-74.33C193.49,-64.03 159.55,-50.13 131.98,-38.85"/>
<polygon fill="black" stroke="black" points="133.35,-35.63 122.77,-35.08 130.7,-42.11 133.35,-35.63"/>
</g>
<!-- 8 -->
<g id="node5" class="node">
<title>8</title>
<ellipse fill="none" stroke="black" cx="254.5" cy="-18" rx="69.53" ry="18"/>
<text text-anchor="middle" x="254.5" y="-12.57" font-family="Times New Roman,serif" font-size="14.00">Normal_Weight</text>
</g>
<!-- 4&#45;&gt;8 -->
<g id="edge4" class="edge">
<title>4&#45;&gt;8</title>
<path fill="none" stroke="black" d="M254.5,-71.7C254.5,-64.41 254.5,-55.73 254.5,-47.54"/>
<polygon fill="black" stroke="black" points="258,-47.62 254.5,-37.62 251,-47.62 258,-47.62"/>
</g>
<!-- 12 -->
<g id="node7" class="node">
<title>12</title>
<ellipse fill="none" stroke="black" cx="414.5" cy="-18" rx="72.02" ry="18"/>
<text text-anchor="middle" x="414.5" y="-12.57" font-family="Times New Roman,serif" font-size="14.00">Obesity_Type_I</text>
</g>
<!-- 10&#45;&gt;12 -->
<g id="edge6" class="edge">
<title>10&#45;&gt;12</title>
<path fill="none" stroke="black" d="M484.62,-74.15C472.93,-64.96 457.66,-52.95 444.36,-42.48"/>
<polygon fill="black" stroke="black" points="446.74,-39.91 436.72,-36.47 442.41,-45.41 446.74,-39.91"/>
</g>
<!-- 14 -->
<g id="node8" class="node">
<title>14</title>
<ellipse fill="none" stroke="black" cx="593.5" cy="-18" rx="88.99" ry="18"/>
<text text-anchor="middle" x="593.5" y="-12.57" font-family="Times New Roman,serif" font-size="14.00">Overweight_Level_II</text>
</g>
<!-- 10&#45;&gt;14 -->
<g id="edge7" class="edge">
<title>10&#45;&gt;14</title>
<path fill="none" stroke="black" d="M522.59,-74.15C534.32,-65.02 549.63,-53.12 563.02,-42.71"/>
<polygon fill="black" stroke="black" points="564.97,-45.62 570.72,-36.72 560.68,-40.09 564.97,-45.62"/>
</g>
<!-- 18 -->
<g id="node10" class="node">
<title>18</title>
<ellipse fill="none" stroke="black" cx="856.5" cy="-90" rx="62.04" ry="18"/>
<text text-anchor="middle" x="856.5" y="-84.58" font-family="Times New Roman,serif" font-size="14.00">FCVC &gt; 2.95</text>
</g>
<!-- 16&#45;&gt;18 -->
<g id="edge9" class="edge">
<title>16&#45;&gt;18</title>
<path fill="none" stroke="black" d="M856.5,-143.7C856.5,-136.41 856.5,-127.73 856.5,-119.54"/>
<polygon fill="black" stroke="black" points="860,-119.62 856.5,-109.62 853,-119.62 860,-119.62"/>
</g>
<!-- 24 -->
<g id="node13" class="node">
<title>24</title>
<ellipse fill="none" stroke="black" cx="1108.5" cy="-90" rx="72.52" ry="18"/>
<text text-anchor="middle" x="1108.5" y="-84.58" font-family="Times New Roman,serif" font-size="14.00">Weight &gt; 107.34</text>
</g>
<!-- 16&#45;&gt;24 -->
<g id="edge12" class="edge">
<title>16&#45;&gt;24</title>
<path fill="none" stroke="black" d="M888.93,-151.99C929.71,-140.66 1000.46,-121.01 1050.61,-107.08"/>
<polygon fill="black" stroke="black" points="1051.46,-110.48 1060.16,-104.43 1049.59,-103.73 1051.46,-110.48"/>
</g>
<!-- 20 -->
<g id="node11" class="node">
<title>20</title>
<ellipse fill="none" stroke="black" cx="772.5" cy="-18" rx="72.02" ry="18"/>
<text text-anchor="middle" x="772.5" y="-12.57" font-family="Times New Roman,serif" font-size="14.00">Obesity_Type_I</text>
</g>
<!-- 18&#45;&gt;20 -->
<g id="edge10" class="edge">
<title>18&#45;&gt;20</title>
<path fill="none" stroke="black" d="M837.02,-72.76C826.36,-63.88 812.95,-52.71 801.12,-42.85"/>
<polygon fill="black" stroke="black" points="803.54,-40.32 793.62,-36.6 799.06,-45.69 803.54,-40.32"/>
</g>
<!-- 22 -->
<g id="node12" class="node">
<title>22</title>
<ellipse fill="none" stroke="black" cx="940.5" cy="-18" rx="78.01" ry="18"/>
<text text-anchor="middle" x="940.5" y="-12.57" font-family="Times New Roman,serif" font-size="14.00">Obesity_Type_III</text>
</g>
<!-- 18&#45;&gt;22 -->
<g id="edge11" class="edge">
<title>18&#45;&gt;22</title>
<path fill="none" stroke="black" d="M875.98,-72.76C886.64,-63.88 900.05,-52.71 911.87,-42.85"/>
<polygon fill="black" stroke="black" points="913.93,-45.69 919.38,-36.6 909.45,-40.32 913.93,-45.69"/>
</g>
<!-- 26 -->
<g id="node14" class="node">
<title>26</title>
<ellipse fill="none" stroke="black" cx="1108.5" cy="-18" rx="72.02" ry="18"/>
<text text-anchor="middle" x="1108.5" y="-12.57" font-family="Times New Roman,serif" font-size="14.00">Obesity_Type_I</text>
</g>
<!-- 24&#45;&gt;26 -->
<g id="edge13" class="edge">
<title>24&#45;&gt;26</title>
<path fill="none" stroke="black" d="M1108.5,-71.7C1108.5,-64.41 1108.5,-55.73 1108.5,-47.54"/>
<polygon fill="black" stroke="black" points="1112,-47.62 1108.5,-37.62 1105,-47.62 1112,-47.62"/>
</g>
<!-- 28 -->
<g id="node15" class="node">
<title>28</title>
<ellipse fill="none" stroke="black" cx="1273.5" cy="-18" rx="75.02" ry="18"/>
<text text-anchor="middle" x="1273.5" y="-12.57" font-family="Times New Roman,serif" font-size="14.00">Obesity_Type_II</text>
</g>
<!-- 24&#45;&gt;28 -->
<g id="edge14" class="edge">
<title>24&#45;&gt;28</title>
<path fill="none" stroke="black" d="M1143.9,-73.98C1168.2,-63.67 1200.7,-49.88 1227.08,-38.69"/>
<polygon fill="black" stroke="black" points="1228.36,-41.95 1236.2,-34.82 1225.63,-35.51 1228.36,-41.95"/>
</g>
</g>
</svg>
